<svg xmlns="http://www.w3.org/2000/svg" xmlns:xlink="http://www.w3.org/1999/xlink" version="1.1" x="0px" y="0px" viewBox="0 0 32 40" enable-background="new 0 0 32 32" xml:space="preserve"><g><g><path d="M20.938,18.084c-0.749,0.104-1.787,0.371-2.478,1.062c-0.661,0.66-0.951,1.729-1.064,2.58    c0.767-0.15,1.783-0.471,2.478-1.166C20.567,19.867,20.836,18.844,20.938,18.084z"/><path d="M16,4.021c-6.617,0-12,5.383-12,12c0,6.336,4.939,11.527,11.167,11.957v-0.957c0-0.383,0.043-0.926,0.126-1.512    c-1.108-0.041-3.193-0.312-4.583-1.703c-1.857-1.857-1.712-4.877-1.705-5.006l0.049-0.889l0.895-0.053    c0,0,0.087-0.006,0.242-0.006c0.917,0,3.218,0.166,4.762,1.711c0.258,0.258,0.478,0.541,0.67,0.834    c0.235-0.91,0.658-1.9,1.423-2.666c1.543-1.545,3.843-1.711,4.76-1.711c0.156,0,0.245,0.006,0.245,0.006l0.89,0.053l0.054,0.891    c0.007,0.127,0.15,3.148-1.706,5.004c-1.028,1.027-2.42,1.494-3.465,1.705c-0.322,0.629-0.657,2.27-0.656,3.342v0.939    C23.238,27.373,28,22.244,28,16.021C28,9.404,22.617,4.021,16,4.021z"/><path d="M12.125,22.393c0.62,0.619,1.629,0.941,2.58,1.064c-0.148-0.766-0.471-1.783-1.166-2.479    c-0.69-0.691-1.728-0.959-2.478-1.062C11.164,20.674,11.432,21.699,12.125,22.393z"/></g></g><text x="0" y="47" fill="#000000" font-size="5px" font-weight="bold" font-family="'Helvetica Neue', Helvetica, Arial-Unicode, Arial, Sans-serif">Created by Ralf Schmitzer</text><text x="0" y="52" fill="#000000" font-size="5px" font-weight="bold" font-family="'Helvetica Neue', Helvetica, Arial-Unicode, Arial, Sans-serif">from the Noun Project</text></svg>